<svg width="21" height="21" viewBox="0 0 21 21" fill="none" xmlns="http://www.w3.org/2000/svg">
<path fill-rule="evenodd" clip-rule="evenodd" d="M10.4329 20.8491C16.1857 20.8491 20.8491 16.1857 20.8491 10.4329C20.8491 4.68021 16.1857 0.0167236 10.4329 0.0167236C4.68021 0.0167236 0.0167236 4.68021 0.0167236 10.4329C0.0167236 16.1857 4.68021 20.8491 10.4329 20.8491ZM15.2597 9.51225L11.3536 5.60617C10.8451 5.09771 10.0207 5.09771 9.51225 5.60617C9.00378 6.11465 9.00378 6.93904 9.51225 7.44752L11.1956 9.1309H6.52685C5.80777 9.1309 5.22482 9.71383 5.22482 10.4329C5.22482 11.152 5.80777 11.7349 6.52685 11.7349H11.1956L9.51225 13.4183C9.00378 13.9268 9.00378 14.7512 9.51225 15.2597C10.0207 15.7681 10.8451 15.7681 11.3536 15.2597L15.2597 11.3536C15.7681 10.8451 15.7681 10.0207 15.2597 9.51225Z" fill="white"/>
</svg>
